# xmcd
#
# Track frame offsets:
#	150
#	13569
#	39776
#	54818
#	83338
#	95707
#	114478
#	140553
#	157005
#	172922
#	194048
#	210635
#	235657
#	256118
#	272133
#	301943
#	325342
#	345367
#
# Disc length: 4778 seconds
#
# Revision: 0
# Processed by: cddbd v1.5.1PL0 Copyright (c) Steve Scherf et al.
# Submitted via: dBpowerAMP V4.0
#
DISCID=e612a812
DTITLE=Gallagher, Rory - Compilation
DYEAR=1900
DGENRE=Blues
TTITLE0=At The Depot
TTITLE1=In Your Town
TTITLE2=Country Mile
TTITLE3=Cradle Rock
TTITLE4=Don't Know Where I'm Going
TTITLE5=They Don't Make Them Like You Anymore
TTITLE6=Secret Agent
TTITLE7=Just Hit Town
TTITLE8=Wave Myself Goodbye
TTITLE9=Lonely Mile
TTITLE10=Barley And Grape Rag
TTITLE11=Edged In Blue
TTITLE12=If I Had A Reason
TTITLE13=Wheels Within Wheels
TTITLE14=For The Last Time
TTITLE15=Heaven's Gate
TTITLE16=Barley And Grape Rag (version 2)
TTITLE17=The Devil Made Me Do It
EXTD=
EXTT0=
EXTT1=
EXTT2=
EXTT3=
EXTT4=
EXTT5=
EXTT6=
EXTT7=
EXTT8=
EXTT9=
EXTT10=
EXTT11=
EXTT12=
EXTT13=
EXTT14=
EXTT15=
EXTT16=
EXTT17=
PLAYORDER=
